# xmcd
#
# Track frame offsets:
#	150
#	14393
#	26428
#	39421
#	52901
#
# Disc length: 861 seconds
#
# Revision: 0
# Processed by: cddbd v1.5.2PL0 Copyright (c) Steve Scherf et al.
# Submitted via: EasyCDDAExtractor 16.0.6.1
#
DISCID=2f035b05
DTITLE=Λούμπεν τα σουξέ
DYEAR=1900
DGENRE=Ελληνική λούμπεν
TTITLE0=Κορωπιώτης Χρήστος - Τζέϊμς Μποντ [Μ. Αλεξάκη-Κ. Καρουσάκη]
TTITLE1=Κρεμμύδας Σώτος-Έλσα - Μπες στον πύραυλο κυρά μου [Τ. Έσδρα-Ν. Μπακογι
TTITLE1=άννη-Μ. Ροδίτη]
TTITLE2=Ιωαννίδης Πάνος-Φιλιππιδάκη Τζένη - Είσαι το άστρο της αυγής [Τ. Έσδρα
TTITLE2=]
TTITLE3=Γιουλάκης Νίκος - Ο αράπης [Ν. Μποέμη]
TTITLE4=Παπαδάκη Ελένη - Πάλι μεθυσμένος ήρθες [Μ. Αλεξάκη]
EXTD=
EXTT0=
EXTT1=
EXTT2=
EXTT3=
EXTT4=
PLAYORDER=
